<svg width="32" height="32" viewBox="0 0 32 32" fill="none" xmlns="http://www.w3.org/2000/svg">
<path fill-rule="evenodd" clip-rule="evenodd" d="M16 2C8.268 2 2 8.268 2 16C2 22.196 5.866 27.417 11.315 29.314C12.115 29.462 12.412 28.974 12.412 28.556C12.412 28.183 12.401 27.28 12.394 26.081C8.565 26.996 7.636 24.343 7.636 24.343C6.909 22.703 5.859 22.218 5.859 22.218C4.387 21.278 5.979 21.298 5.979 21.298C7.616 21.421 8.456 22.891 8.456 22.891C9.91 25.328 12.312 24.611 12.441 24.201C12.587 23.165 13.004 22.45 13.461 22.049C10.382 21.644 7.137 20.343 7.137 15.326C7.137 13.767 7.762 12.487 8.49 11.489C8.323 11.083 7.787 9.548 8.651 7.524C8.651 7.524 10.032 7.1 12.381 8.644C13.661 8.283 15.022 8.103 16.38 8.096C17.737 8.103 19.099 8.283 20.382 8.644C22.727 7.1 24.106 7.524 24.106 7.524C24.972 9.548 24.436 11.083 24.269 11.489C25.001 12.487 25.622 13.767 25.622 15.326C25.622 20.357 22.37 21.641 19.284 22.037C19.854 22.532 20.362 23.508 20.362 25.005C20.362 27.162 20.344 28.899 20.344 29.556C20.344 29.977 20.635 30.469 21.448 30.312C26.894 28.412 30.759 22.194 30.759 16C30.759 8.268 24.491 2 16.759 2H16Z" fill="#24292F"/>
</svg>